<?xml version="1.0" standalone="no"?>
<!DOCTYPE svg PUBLIC "-//W3C//DTD SVG 20010904//EN"
 "http://www.w3.org/TR/2001/REC-SVG-20010904/DTD/svg10.dtd">
<svg version="1.0" xmlns="http://www.w3.org/2000/svg"
 width="700.000000pt" height="700.000000pt" viewBox="0 0 700.000000 700.000000"
 preserveAspectRatio="xMidYMid meet">
<metadata>
Created by potrace 1.14, written by Peter Selinger 2001-2017
</metadata>
<g transform="translate(0.000000,700.000000) scale(0.100000,-0.100000)"
fill="#000000" stroke="none">
<path d="M2242 5561 l961 -1439 -1130 -1688 c-621 -929 -1132 -1695 -1137
-1701 -6 -10 88 -13 458 -13 l464 0 903 1356 902 1355 343 -518 c189 -285 592
-895 896 -1355 l553 -837 463 -1 c368 0 462 3 456 13 -4 6 -495 751 -1091
1655 -641 972 -1081 1648 -1076 1655 3 7 442 662 973 1457 532 795 975 1457
985 1473 l17 27 -463 0 -464 -1 -760 -1134 c-418 -624 -762 -1134 -765 -1134
-3 -1 -347 510 -764 1134 l-758 1135 -464 0 -463 0 961 -1439z"/>
</g>
</svg>
